HIERARCHY
ROOT Hips
{
  OFFSET 3.13124 94.3669 -3.18751
  CHANNELS  6 Xposition Yposition Zposition Zrotation Xrotation Yrotation
  JOINT LeftUpLeg
  {
    OFFSET 8.64259 1.95398 -2.38835
    CHANNELS 3 Zrotation Xrotation Yrotation
    JOINT LeftLeg
    {
      OFFSET 43.7702 0 0
      CHANNELS 3 Zrotation Xrotation Yrotation
      JOINT LeftFoot
      {
        OFFSET 40.6238 0 0
        CHANNELS 3 Zrotation Xrotation Yrotation
        JOINT LeftToeBase
        {
          OFFSET 12.7242 0 0
          CHANNELS 3 Zrotation Xrotation Yrotation
          End Site
          {
            OFFSET 0 0 0
          }
        }
      }
    }
  }
  JOINT RightUpLeg
  {
    OFFSET -8.2249 1.95398 -2.59336
    CHANNELS 3 Zrotation Xrotation Yrotation
    JOINT RightLeg
    {
      OFFSET 43.5653 0 0
      CHANNELS 3 Zrotation Xrotation Yrotation
      JOINT RightFoot
      {
        OFFSET 40.6238 0 0
        CHANNELS 3 Zrotation Xrotation Yrotation
        JOINT RightToeBase
        {
          OFFSET 12.7242 0 0
          CHANNELS 3 Zrotation Xrotation Yrotation
          End Site
          {
            OFFSET 0 0 0
          }
        }
      }
    }
  }
  JOINT Spine
  {
    OFFSET 0.165834 0.87714 6.61349
    CHANNELS 3 Zrotation Xrotation Yrotation
    JOINT Spine1
    {
      OFFSET 7.38962 1.71661e-005 0
      CHANNELS 3 Zrotation Xrotation Yrotation
      JOINT Spine2
      {
        OFFSET 11.9445 1.14441e-005 0
        CHANNELS 3 Zrotation Xrotation Yrotation
        JOINT Spine3
        {
          OFFSET 14.7254 4.19617e-005 0
          CHANNELS 3 Zrotation Xrotation Yrotation
          JOINT Spine4
          {
            OFFSET 10.9679 0 0
            CHANNELS 3 Zrotation Xrotation Yrotation
            JOINT RightShoulder
            {
              OFFSET 2.46616 -1.6653 3.69651
              CHANNELS 3 Zrotation Xrotation Yrotation
              JOINT RightArm
              {
                OFFSET 13.0012 0 0
                CHANNELS 3 Zrotation Xrotation Yrotation
                JOINT RightForeArm
                {
                  OFFSET 28.7848 1.52588e-005 0
                  CHANNELS 3 Zrotation Xrotation Yrotation
                  JOINT RightHand
                  {
                    OFFSET 26.5688 1.52588e-005 0
                    CHANNELS 3 Zrotation Xrotation Yrotation
                    End Site
                    {
                      OFFSET 0 0 0
                    }
                  }
                }
              }
            }
            JOINT LeftShoulder
            {
              OFFSET 2.38034 -1.29275 -3.75231
              CHANNELS 3 Zrotation Xrotation Yrotation
              JOINT LeftArm
              {
                OFFSET 16.3182 6.10352e-005 0
                CHANNELS 3 Zrotation Xrotation Yrotation
                JOINT LeftForeArm
                {
                  OFFSET 27.0901 0 0
                  CHANNELS 3 Zrotation Xrotation Yrotation
                  JOINT LeftHand
                  {
                    OFFSET 24.5451 1.52588e-005 0
                    CHANNELS 3 Zrotation Xrotation Yrotation
                    End Site
                    {
                      OFFSET 0 0 0
                    }
                  }
                }
              }
            }
            JOINT Neck
            {
              OFFSET 5.0226 -0.0266342 0
              CHANNELS 3 Zrotation Xrotation Yrotation
              JOINT Head
              {
                OFFSET 6.69363 2.86102e-005 0
                CHANNELS 3 Zrotation Xrotation Yrotation
                End Site
                {
                  OFFSET 0 0 0
                }
              }
            }
          }
        }
      }
    }
  }
}
MOTION
Frames:	15
Frame Time:	0.0333333
1.99461 93.7135 -4.5523 45.8043 -89.9949 45.8807 -169.126 3.62723 94.7578 -9.36252 10.9791 0.157927 63.5454 2.30502 1.23908 28.7808 4.35288e-006 2.50407e-006 176.836 2.24444 84.305 -7.66164 -3.19799 -0.183781 62.7576 -1.4467 -0.735163 28.7808 1.53767e-005 2.16716e-005 0.00619037 6.33109 -90.0783 14.1934 6.67824e-006 -4.56547e-006 2.52251 -4.83454e-007 8.32564e-006 -20.0126 6.85821e-006 1.06552e-005 -1.15593e-006 -1.73172e-005 -2.04986e-005 101.086 -19.2799 -84.797 -11.2598 30.146 -6.88828 -7.62935 -30.1592 -11.099 2.35428 0.149695 1.72995 -79.0044 -21.9474 94.2945 16.7861 -30.424 -6.78107 5.96047 30.1587 -9.85532 -2.25526 -0.0844212 1.60613 1.7541 -0.000274329 -0.000353075 -7.4111 -9.33945e-005 0.000685315 
1.99326 93.7158 -4.57272 80.8846 -89.9778 80.9408 -169.152 3.61197 94.7323 -9.29927 11.0357 0.176981 63.5126 2.28294 1.2278 28.7808 4.35288e-006 2.50407e-006 176.778 2.07596 84.2693 -7.28894 -3.40857 -0.195145 62.6568 -1.3821 -0.693557 28.7808 1.53767e-005 2.16716e-005 0.00711072 6.33095 -90.0893 14.1934 6.67824e-006 -4.56547e-006 2.52251 -4.83454e-007 8.32564e-006 -20.0126 6.85821e-006 1.06552e-005 -1.15593e-006 -1.73172e-005 -2.04986e-005 101.086 -19.2664 -84.8194 -11.2742 30.234 -6.70736 -7.84716 -30.1213 -11.5328 2.56346 0.168553 1.95935 -79.006 -21.9504 94.2673 16.7107 -30.4943 -6.85567 6.13124 30.3403 -10.1335 -2.39266 -0.0917159 2.42364 1.78741 -0.0334844 -0.0409497 -7.42778 -0.0161849 0.0790179 
1.99053 93.7123 -4.5843 79.3104 -89.9789 79.3589 -169.154 3.61468 94.7256 -9.3068 11.0665 0.185183 63.5336 2.27623 1.2239 28.7808 4.35288e-006 2.50407e-006 176.814 2.29102 84.2664 -7.72633 -3.34012 -0.191752 62.8104 -1.43903 -0.730117 28.7808 1.53767e-005 2.16716e-005 0.00685596 6.33099 -90.086 14.1934 6.67824e-006 -4.56547e-006 2.52251 -4.83454e-007 8.32564e-006 -20.0126 6.85821e-006 1.06552e-005 -1.15593e-006 -1.73172e-005 -2.04986e-005 101.089 -19.2562 -84.8319 -11.2733 30.2901 -6.57494 -8.01882 -30.1743 -11.846 2.71751 0.180207 2.03315 -79.008 -21.9292 94.2455 16.6679 -30.3604 -7.35827 5.69256 30.5838 -9.21771 -2.02567 -0.0692818 2.65183 1.74776 -0.044394 -0.0508087 -7.35233 -0.0333207 0.0954167 
1.98841 93.7134 -4.5951 54.2982 -89.9785 54.3483 -169.158 3.63075 94.7241 -9.30828 11.0684 0.187927 63.507 2.29172 1.2326 28.7808 4.35288e-006 2.50407e-006 176.812 2.28575 84.2707 -7.67162 -3.36562 -0.19176 62.7646 -1.45466 -0.738512 28.7808 1.53767e-005 2.16716e-005 0.00688194 6.33099 -90.0861 14.1934 6.67824e-006 -4.56547e-006 2.52251 -4.83454e-007 8.32564e-006 -20.0126 6.85821e-006 1.06552e-005 -1.15593e-006 -1.73172e-005 -2.04986e-005 101.116 -19.2297 -84.8433 -11.2425 30.3409 -6.46746 -8.183 -30.1899 -12.1566 2.84097 0.193242 2.20321 -78.9975 -21.8937 94.1985 16.6676 -30.3784 -7.30586 5.74104 30.5041 -9.32669 -2.06607 -0.0717367 2.70894 1.74751 -0.042467 -0.0679354 -7.34409 -0.0345261 0.109323 
1.98991 93.7159 -4.60256 121.321 -89.9863 121.386 -169.155 3.60974 94.7391 -9.29434 11.1016 0.202647 63.5152 2.27297 1.22245 28.7808 4.35288e-006 2.50407e-006 176.784 2.08112 84.2831 -7.27989 -3.35851 -0.191766 62.6333 -1.38083 -0.692474 28.7808 1.53767e-005 2.16716e-005 0.00728141 6.33091 -90.0915 14.1934 6.67824e-006 -4.56547e-006 2.52251 -4.83454e-007 8.32564e-006 -20.0126 6.85821e-006 1.06552e-005 -1.15593e-006 -1.73172e-005 -2.04986e-005 101.124 -19.2059 -84.829 -11.1865 30.3723 -6.40602 -8.30853 -30.2075 -12.3962 2.83988 0.196809 2.32823 -79.01 -21.8932 94.1758 16.7957 -29.6124 -9.48198 3.13838 30.532 -4.23042 -0.852128 -0.013688 1.42805 1.72383 -0.0188235 -0.0121318 -7.36941 -0.0364713 0.0166633 
1.99163 93.7169 -4.60536 -161.26 -89.9579 -161.219 -169.165 3.56088 94.714 -9.28043 11.0792 0.21408 63.491 2.29641 1.23609 28.7808 4.35288e-006 2.50407e-006 176.788 2.19068 84.2547 -7.55984 -3.44191 -0.191797 62.704 -1.46139 -0.740618 28.7808 1.53767e-005 2.16716e-005 0.00724107 6.33091 -90.0916 14.1934 6.67824e-006 -4.56547e-006 2.52251 -4.83454e-007 8.32564e-006 -20.0126 6.85821e-006 1.06552e-005 -1.15593e-006 -1.73172e-005 -2.04986e-005 101.115 -19.1722 -84.8366 -11.1455 30.1016 -6.9987 -7.52508 -29.7759 -10.9772 2.22471 0.140763 1.6844 -79.0372 -21.8876 94.13 16.7847 -30.3309 -7.3863 5.54272 30.5812 -8.92733 -2.09195 -0.0735566 2.63331 1.68836 -0.0123893 0.0116542 -7.39145 -0.030268 0.0213837 
1.97554 93.7159 -4.61884 -114.644 -89.9465 -114.593 -169.165 3.58846 94.7293 -9.29335 11.0811 0.217513 63.5102 2.25982 1.21512 28.7808 4.35288e-006 2.50407e-006 176.81 2.28264 84.2754 -7.69029 -3.46374 -0.19182 62.7436 -1.48021 -0.752427 28.7808 1.53767e-005 2.16716e-005 0.00716843 6.33093 -90.0904 14.1934 6.67824e-006 -4.538e-006 2.52251 -4.83454e-007 8.32523e-006 -20.0126 6.74144e-006 1.06527e-005 -1.15468e-006 -1.73137e-005 -2.03067e-005 101.138 -19.1872 -84.8471 -11.1418 29.9952 -7.24348 -7.21104 -29.6124 -10.3942 2.00488 0.121711 1.41743 -79.0045 -21.8679 94.1474 16.8085 -29.5717 -9.36881 3.11725 30.3653 -4.19533 -0.62883 -0.0037514 1.33073 1.67362 -0.043318 -0.0346213 -7.33711 -0.073263 0.0329958 
1.97442 93.7221 -4.6245 -117.861 -89.9187 -117.811 -169.175 3.58323 94.7216 -9.31814 11.0289 0.223773 63.4635 2.27529 1.22337 28.7808 4.35288e-006 2.50407e-006 176.785 2.13351 84.2709 -7.39034 -3.47046 -0.191845 62.6324 -1.424 -0.71761 28.7808 1.53767e-005 2.16716e-005 0.00714708 6.33094 -90.0901 14.1936 6.67824e-006 -0.000198708 2.52266 -4.83454e-007 -0.000191384 -20.0125 8.14989e-005 -0.00018051 0.000161409 8.4631e-005 -0.000182673 101.132 -19.166 -84.8513 -11.0664 30.262 -6.69286 -7.91815 -29.4054 -11.8617 2.50714 0.167135 2.02967 -79.0112 -21.8709 94.1478 16.8253 -29.9262 -8.38166 4.24708 30.3508 -6.42536 -1.33404 -0.0336493 1.90669 1.64561 -0.0305677 0.0465926 -7.31578 -0.085567 -0.08812 
1.96155 93.7194 -4.63538 -107.109 -89.9157 -107.058 -169.167 3.6166 94.7367 -9.34225 11.0493 0.225868 63.4739 2.26315 1.22204 28.7808 4.35288e-006 2.50407e-006 176.814 2.26231 84.2883 -7.62136 -3.47614 -0.191874 62.7145 -1.48143 -0.752991 28.7808 1.53767e-005 2.16716e-005 0.0116946 6.33082 -90.0976 14.2103 6.67824e-006 -0.0229988 2.53932 -4.83454e-007 -0.0231626 -19.9958 0.0108054 -0.0207013 0.0168098 0.010811 -0.0207039 101.087 -19.0978 -84.8077 -11.157 29.7361 -7.71217 -6.53968 -29.4518 -9.08346 1.49942 0.082501 0.854365 -79.0793 -21.9696 94.1374 16.8297 -29.574 -9.38424 3.0892 29.9878 -4.1543 -0.626427 -0.00525834 1.2025 1.61679 -0.0731188 0.104996 -7.33558 -0.0849906 -0.0961042 
1.95511 93.7234 -4.64081 -108.374 -89.9148 -108.323 -169.165 3.62609 94.7439 -9.35455 11.0639 0.230494 63.4481 2.27201 1.21939 28.7808 4.35288e-006 2.50407e-006 176.797 2.13205 84.2969 -7.34549 -3.48001 -0.191908 62.6132 -1.42643 -0.718961 28.7808 1.53767e-005 2.16716e-005 0.0145534 6.33077 -90.1008 14.2124 6.67824e-006 -0.0284299 2.54145 -4.83454e-007 -0.0287696 -19.9937 0.0165725 -0.0245828 0.018939 0.0165553 -0.0245862 101.11 -19.0358 -84.7657 -11.0648 29.8915 -7.32255 -7.01597 -29.3342 -10.0696 1.74777 0.104934 1.31464 -79.0998 -22.0312 94.0753 16.9055 -29.5732 -9.28156 3.09202 30.0561 -4.15709 -0.615598 -0.00817134 0.995066 1.5837 -0.0707004 0.20953 -7.29739 -0.0982292 -0.210573 
1.94728 93.7217 -4.65129 -103.867 -89.9346 -103.816 -169.168 3.64074 94.7411 -9.34497 11.0968 0.23517 63.4454 2.26474 1.21684 28.7808 4.35288e-006 2.50407e-006 176.808 2.20588 84.2981 -7.47088 -3.46735 -0.191944 62.6622 -1.44271 -0.729216 28.7808 1.53767e-005 2.16716e-005 0.0116005 6.33043 -90.0997 14.2133 6.67824e-006 -0.0238066 2.54235 -4.83454e-007 -0.0239541 -19.9928 0.0107547 -0.0208727 0.0198557 0.0107323 -0.0208947 101.11 -19.052 -84.7717 -11.0964 29.7506 -7.57989 -6.62232 -29.1361 -9.31698 1.51185 0.0851851 0.964291 -79.0934 -22.0079 94.0828 16.8798 -29.5625 -9.27895 3.09487 30.1027 -4.159 -0.579155 -0.00788321 0.943488 1.61436 -0.0788347 0.149876 -7.30582 -0.0989146 -0.160933 
1.94105 93.7239 -4.65761 -110.012 -89.9444 -109.961 -169.168 3.65308 94.7418 -9.36277 11.116 0.238198 63.4195 2.26143 1.21438 28.7808 4.35288e-006 2.50407e-006 176.802 2.1671 84.2985 -7.39171 -3.47236 -0.191987 62.6233 -1.43423 -0.723604 28.7808 1.53767e-005 2.16716e-005 0.00877132 6.33012 -90.0954 14.2137 6.67824e-006 -0.016646 2.54273 -4.83454e-007 -0.0166046 -19.9924 0.00474582 -0.0159444 0.0202151 0.00471898 -0.0159817 101.104 -19.0809 -84.7894 -11.0991 29.7696 -7.49273 -6.68622 -29.1033 -9.45401 1.56591 0.0894522 1.03813 -79.0976 -21.9579 94.067 16.8814 -29.5466 -9.22816 3.09553 30.1237 -4.15984 -0.63639 -0.00739934 0.820721 1.5825 -0.0932422 0.047383 -7.24702 -0.0993331 -0.0707563 
1.93272 93.7235 -4.66559 -122.13 -89.9594 -122.079 -169.167 3.65862 94.7458 -9.36313 11.1549 0.240916 63.4257 2.23935 1.20196 28.7808 4.35288e-006 2.50407e-006 176.811 2.20465 84.3038 -7.47472 -3.43647 -0.192027 62.669 -1.43896 -0.727105 28.7808 1.53767e-005 2.16716e-005 0.00552981 6.33022 -90.0943 14.2135 6.67824e-006 -0.0127588 2.54256 -4.83454e-007 -0.012505 -19.9926 -0.00109408 -0.0139134 0.0200264 -0.00110225 -0.0139095 101.095 -19.0825 -84.7962 -11.0651 29.8109 -7.3778 -6.81614 -29.015 -9.73823 1.6542 0.0974147 1.19563 -79.1121 -21.9585 94.0437 16.8756 -29.5384 -9.20939 3.09671 30.1509 -4.16094 -0.542758 -0.00725322 0.842721 1.59803 -0.111638 0.0196004 -7.26348 -0.110775 -0.047885 
1.92436 93.7255 -4.67053 -132.598 -89.9498 -132.547 -169.165 3.65273 94.7515 -9.369 11.1447 0.244195 63.4085 2.24623 1.20582 28.7808 4.35288e-006 2.50407e-006 176.808 2.159 84.3088 -7.39743 -3.42629 -0.192077 62.634 -1.41332 -0.711473 28.7808 1.53767e-005 2.16716e-005 0.00704927 6.34023 -90.0876 14.1934 6.67824e-006 -1.16795e-005 2.52251 -4.83454e-007 7.81658e-006 -20.0126 -0.0010559 1.14275e-005 -1.11351e-006 -0.00106413 -9.64397e-006 101.179 -19.1312 -84.7605 -11.0112 30.0231 -6.92904 -7.42669 -29.2105 -10.9283 2.07982 0.132532 1.69527 -79.0584 -21.9196 94.0049 16.9397 -29.5512 -9.15607 3.1011 30.161 -4.17051 -0.70642 -0.0157156 0.753334 1.68604 -0.15452 -0.0375499 -7.26151 -0.129224 -0.054128 
1.90869 93.719 -4.6813 -121.396 -89.9433 -121.34 -169.157 3.69313 94.7654 -9.42918 11.182 0.250345 63.4377 2.22939 1.19532 28.7808 4.35288e-006 2.50407e-006 176.884 2.53703 84.3299 -8.15712 -3.36146 -0.192119 62.8684 -1.57952 -0.813593 28.7808 1.53767e-005 2.16716e-005 0.00628373 6.34022 -90.0785 14.1935 6.67825e-006 -1.39431e-006 2.5225 -4.8344e-007 -2.77017e-006 -20.0126 -0.000953654 1.54436e-005 -5.49089e-007 -0.000962029 -6.82963e-006 101.171 -19.1309 -84.7812 -10.9859 30.2279 -6.50348 -7.98929 -29.3053 -12.0327 2.51093 0.170994 2.16592 -79.0507 -21.8868 94.0072 16.8921 -29.6772 -8.85364 3.50931 30.1853 -4.97746 -0.87942 -0.0166044 1.27901 1.73047 -0.19009 -0.0690393 -7.31112 -0.141472 -0.0527221 
